<mxfile host="app.diagrams.net" modified="2023-03-13T10:38:52.304Z" agent="5.0 (Windows NT 10.0; Win64; x64) AppleWebKit/537.36 (KHTML, like Gecko) Chrome/110.0.0.0 Safari/537.36" etag="oqsh59PW_J4EH51a67w9" version="20.8.17" type="github">
  <diagram name="第 1 页" id="oDgHPKQ7fmd44I1gppoe">
    <mxGraphModel dx="1434" dy="834" grid="1" gridSize="10" guides="1" tooltips="1" connect="1" arrows="1" fold="1" page="1" pageScale="1" pageWidth="1654" pageHeight="1169" math="0" shadow="0">
      <root>
        <mxCell id="0" />
        <mxCell id="1" parent="0" />
        <mxCell id="Nqncb38tdzn1ghxaWQQk-2" style="edgeStyle=orthogonalEdgeStyle;rounded=0;orthogonalLoop=1;jettySize=auto;html=1;fontSize=16;exitX=1;exitY=0.5;exitDx=0;exitDy=0;" parent="1" source="Nqncb38tdzn1ghxaWQQk-18" target="DGLDECt9-ov5wwd3O3Km-2" edge="1">
          <mxGeometry relative="1" as="geometry">
            <mxPoint x="660" y="182.5" as="sourcePoint" />
          </mxGeometry>
        </mxCell>
        <mxCell id="Nqncb38tdzn1ghxaWQQk-3" style="edgeStyle=orthogonalEdgeStyle;rounded=0;orthogonalLoop=1;jettySize=auto;html=1;entryX=0;entryY=0.5;entryDx=0;entryDy=0;fontSize=16;exitX=1;exitY=0.5;exitDx=0;exitDy=0;" parent="1" source="Nqncb38tdzn1ghxaWQQk-18" target="DGLDECt9-ov5wwd3O3Km-4" edge="1">
          <mxGeometry relative="1" as="geometry">
            <mxPoint x="650" y="182.5" as="sourcePoint" />
          </mxGeometry>
        </mxCell>
        <mxCell id="Nqncb38tdzn1ghxaWQQk-22" style="edgeStyle=orthogonalEdgeStyle;rounded=0;orthogonalLoop=1;jettySize=auto;html=1;exitX=1;exitY=0.5;exitDx=0;exitDy=0;fontSize=16;" parent="1" source="DGLDECt9-ov5wwd3O3Km-1" target="DGLDECt9-ov5wwd3O3Km-9" edge="1">
          <mxGeometry relative="1" as="geometry" />
        </mxCell>
        <mxCell id="DGLDECt9-ov5wwd3O3Km-1" value="推送服务" style="rounded=1;whiteSpace=wrap;html=1;fontSize=16;" parent="1" vertex="1">
          <mxGeometry x="210" y="162.5" width="100" height="40" as="geometry" />
        </mxCell>
        <mxCell id="Nqncb38tdzn1ghxaWQQk-25" style="edgeStyle=orthogonalEdgeStyle;rounded=0;orthogonalLoop=1;jettySize=auto;html=1;exitX=1;exitY=0.5;exitDx=0;exitDy=0;fontSize=16;" parent="1" source="DGLDECt9-ov5wwd3O3Km-2" target="Nqncb38tdzn1ghxaWQQk-24" edge="1">
          <mxGeometry relative="1" as="geometry" />
        </mxCell>
        <mxCell id="DGLDECt9-ov5wwd3O3Km-2" value="单播" style="rounded=1;whiteSpace=wrap;html=1;fontSize=16;" parent="1" vertex="1">
          <mxGeometry x="715" y="162.5" width="80" height="40" as="geometry" />
        </mxCell>
        <mxCell id="DGLDECt9-ov5wwd3O3Km-3" value="" style="shape=cylinder3;whiteSpace=wrap;html=1;boundedLbl=1;backgroundOutline=1;size=15;fontSize=16;" parent="1" vertex="1">
          <mxGeometry x="395" y="552.5" width="60" height="80" as="geometry" />
        </mxCell>
        <mxCell id="DGLDECt9-ov5wwd3O3Km-4" value="文件播" style="rounded=1;whiteSpace=wrap;html=1;fontSize=16;" parent="1" vertex="1">
          <mxGeometry x="715" y="272.5" width="80" height="40" as="geometry" />
        </mxCell>
        <mxCell id="DGLDECt9-ov5wwd3O3Km-11" style="edgeStyle=orthogonalEdgeStyle;rounded=0;orthogonalLoop=1;jettySize=auto;html=1;exitX=0.5;exitY=1;exitDx=0;exitDy=0;entryX=0.5;entryY=0;entryDx=0;entryDy=0;fontSize=16;" parent="1" source="DGLDECt9-ov5wwd3O3Km-9" target="Nqncb38tdzn1ghxaWQQk-21" edge="1">
          <mxGeometry relative="1" as="geometry">
            <mxPoint x="870" y="528.5" as="targetPoint" />
          </mxGeometry>
        </mxCell>
        <mxCell id="DGLDECt9-ov5wwd3O3Km-12" value="是" style="edgeLabel;html=1;align=center;verticalAlign=middle;resizable=0;points=[];fontSize=16;" parent="DGLDECt9-ov5wwd3O3Km-11" vertex="1" connectable="0">
          <mxGeometry x="-0.176" y="1" relative="1" as="geometry">
            <mxPoint as="offset" />
          </mxGeometry>
        </mxCell>
        <mxCell id="Nqncb38tdzn1ghxaWQQk-23" style="edgeStyle=orthogonalEdgeStyle;rounded=0;orthogonalLoop=1;jettySize=auto;html=1;fontSize=16;entryX=0;entryY=0.5;entryDx=0;entryDy=0;" parent="1" source="DGLDECt9-ov5wwd3O3Km-9" target="Nqncb38tdzn1ghxaWQQk-18" edge="1">
          <mxGeometry relative="1" as="geometry" />
        </mxCell>
        <mxCell id="DGLDECt9-ov5wwd3O3Km-9" value="厂商通道&lt;br&gt;直推" style="rhombus;whiteSpace=wrap;html=1;fontSize=16;rounded=1;" parent="1" vertex="1">
          <mxGeometry x="370" y="140" width="110" height="85" as="geometry" />
        </mxCell>
        <mxCell id="Nqncb38tdzn1ghxaWQQk-18" value="使用友盟" style="rounded=1;whiteSpace=wrap;html=1;fontSize=16;" parent="1" vertex="1">
          <mxGeometry x="530" y="162.5" width="100" height="40" as="geometry" />
        </mxCell>
        <mxCell id="2GEckiMIVui-zGxiKaJb-1" style="edgeStyle=orthogonalEdgeStyle;rounded=0;orthogonalLoop=1;jettySize=auto;html=1;entryX=0.5;entryY=0;entryDx=0;entryDy=0;entryPerimeter=0;fontSize=16;" edge="1" parent="1" source="Nqncb38tdzn1ghxaWQQk-21" target="DGLDECt9-ov5wwd3O3Km-3">
          <mxGeometry relative="1" as="geometry" />
        </mxCell>
        <mxCell id="Nqncb38tdzn1ghxaWQQk-21" value="厂商通道" style="rounded=1;whiteSpace=wrap;html=1;fontSize=16;" parent="1" vertex="1">
          <mxGeometry x="385" y="392.5" width="80" height="40" as="geometry" />
        </mxCell>
        <mxCell id="Nqncb38tdzn1ghxaWQQk-24" value="自检&lt;br&gt;重发" style="ellipse;shape=umlControl;whiteSpace=wrap;html=1;strokeColor=default;fontSize=16;fillColor=none;" parent="1" vertex="1">
          <mxGeometry x="890" y="142.5" width="70" height="80" as="geometry" />
        </mxCell>
      </root>
    </mxGraphModel>
  </diagram>
</mxfile>
